{"title":"Inside Out 2011 DVDrip English Klam","uid":6716692,"size":1579019707,"categoryP":"video","categoryS":"movies","magnet":"?xt=urn:btih:79e9c931957e4a49685c511542de7bdd1fc4beee&amp;dn=Inside+Out+2011+DVDrip+English+Klam&amp;tr=udp%3A%2F%2Ftracker.openbittorrent.com%3A80&amp;tr=udp%3A%2F%2Fopen.demonii.com%3A1337&amp;tr=udp%3A%2F%2Ftracker.coppersurfer.tk%3A6969&amp;tr=udp%3A%2F%2Fexodus.desync.com%3A6969","seeders":0,"leechers":0,"uploader":"Klambake","files":-1,"time":1317584717,"description":"With: Paul Levesque, Michael Rapaport en Parker Posey\n\nDe afgelopen dertien jaar heeft AJ (Paul Levesque) achter de tralies gezeten wegens een veroordeling voor doodslag op een man die zijn beste vriend Jack (Michael Rapaport) wilde vermoorden. Nu hij weer vrij is, wil AJ niets lever dan een eigen bedrijfje starten en een leven zonder misdaad leiden. Echter binnen enkele uren na zijn vrijlating uit de gevangenis betrekt zijn oude vriend Jack hem echter bij een toevallige schietpartij, waarbij een man wordt gedood.\n\nFor the last thirteen years AJ (Triple H) has been behind bars, convicted of manslaughter for killing a man who intended to kill his best friend...\n\n------------------ Dutch Friends ------------------\nYou can find my Friends at: http://www.Film-Test.nl \n------ They got my dutch subs ----- and more ------\n\nGeneral:\n\nComplete name                    : Inside Out\\Insitde Out.avi\nFormat                           : AVI\nFormat/Info                      : Audio Video Interleave\nFile size                        : 1.47 GiB\nDuration                         : 1h 33mn\nOverall bit rate                 : 2 261 Kbps\n\nVideo:\n\nFormat                           : MPEG-4 Visual\nFormat profile                   : Simple@L3\nFormat settings, BVOP            : No\nFormat settings, QPel            : No\nFormat settings, GMC             : No warppoints\nFormat settings, Matrix          : Default (H.263)\nCodec ID                         : XVID\nCodec ID/Hint                    : XviD\nDuration                         : 1h 33mn\nBit rate                         : 1 801 Kbps\nWidth                            : 652 pixels\nHeight                           : 352 pixels\nDisplay aspect ratio             : 1.852\nFrame rate                       : 29.970 fps\nColor space                      : YUV\nChroma subsampling               : 4:2:0\nBit depth                        : 8 bits\nScan type                        : Progressive\nBits/(Pixel*Frame)               : 0.262\nStream size                      : 1.17 GiB (80%)\nWriting library                  : XviD 1.1.2 (UTC 2006-11-01)\n\nAudio:\n\nFormat                           : AC-3\nFormat/Info                      : Audio Coding 3\nMode extension                   : CM (complete main)\nCodec ID                         : 2000\nDuration                         : 1h 33mn\nBit rate mode                    : Constant\nBit rate                         : 448 Kbps\nChannel(s)                       : 6 channels\nChannel positions                : Front: L C R, Side: L R, LFE\nSampling rate                    : 48.0 KHz\nBit depth                        : 16 bits\nStream size                      : 298 MiB (20%)\nAlignment                        : Aligned on interleaves\nInterleave, duration             : 32 ms (0.96 video frame)\nInterleave, preload duration     : 512 ms\n\n\n","torrent":{"xt":"urn:btih:79e9c931957e4a49685c511542de7bdd1fc4beee","amp;dn":"Inside+Out+2011+DVDrip+English+Klam","amp;tr":["udp%3A%2F%2Ftracker.openbittorrent.com%3A80","udp%3A%2F%2Fopen.demonii.com%3A1337","udp%3A%2F%2Ftracker.coppersurfer.tk%3A6969","udp%3A%2F%2Fexodus.desync.com%3A6969"],"infoHash":"79e9c931957e4a49685c511542de7bdd1fc4beee","infoHashBuffer":{"type":"Buffer","data":[121,233,201,49,149,126,74,73,104,92,81,21,66,222,123,221,31,196,190,238]},"announce":[],"urlList":[]}}